<svg width="32" height="27" viewBox="0 0 32 27" fill="none" xmlns="http://www.w3.org/2000/svg">
<g id="bx-cart.svg">
<path id="Vector" d="M27.7627 6.10988C27.6401 5.96034 27.4763 5.83811 27.2854 5.75366C27.0945 5.66921 26.8822 5.62507 26.6667 5.62501H8.44404L6.90537 2.50876C6.70363 2.09838 6.362 1.74779 5.92381 1.50144C5.48562 1.25509 4.97059 1.12408 4.44404 1.125H1.33337V3.37501H4.44404L10.7694 16.1831C10.8707 16.3881 11.0416 16.5631 11.2606 16.6862C11.4796 16.8093 11.7369 16.875 12 16.875H22.6667C23.2227 16.875 23.72 16.5836 23.916 16.146L27.916 7.14601C27.9916 6.9757 28.0172 6.79248 27.9905 6.61202C27.9638 6.43157 27.8856 6.25927 27.7627 6.10988ZM21.7427 14.625H12.8894L9.55604 7.87501H24.7427L21.7427 14.625Z" fill="white"/>
<path id="Vector_2" d="M14 23.625C15.1046 23.625 16 22.8695 16 21.9375C16 21.0055 15.1046 20.25 14 20.25C12.8954 20.25 12 21.0055 12 21.9375C12 22.8695 12.8954 23.625 14 23.625Z" fill="white"/>
<path id="Vector_3" d="M23.3334 23.625C24.4379 23.625 25.3334 22.8695 25.3334 21.9375C25.3334 21.0055 24.4379 20.25 23.3334 20.25C22.2288 20.25 21.3334 21.0055 21.3334 21.9375C21.3334 22.8695 22.2288 23.625 23.3334 23.625Z" fill="white"/>
</g>
</svg>
