<svg width="24" height="23" viewBox="0 0 24 23" fill="none" xmlns="http://www.w3.org/2000/svg">
<path id="Vector" d="M12 0C10.6815 0 9.39253 0.354981 8.2962 1.02005C7.19987 1.68512 6.34539 2.63042 5.8408 3.73639C5.33622 4.84236 5.2042 6.05935 5.46143 7.23344C5.71867 8.40754 6.3536 9.48601 7.28596 10.3325C8.21831 11.179 9.40619 11.7554 10.6994 11.989C11.9926 12.2225 13.333 12.1026 14.5512 11.6445C15.7694 11.1864 16.8106 10.4106 17.5431 9.41529C18.2757 8.41994 18.6667 7.24973 18.6667 6.05263C18.6667 4.44737 17.9643 2.90786 16.714 1.77277C15.4638 0.637686 13.7681 0 12 0V0ZM12 9.68421C11.2089 9.68421 10.4355 9.47122 9.77772 9.07218C9.11992 8.67314 8.60723 8.10596 8.30448 7.44238C8.00173 6.77879 7.92252 6.0486 8.07686 5.34415C8.2312 4.63969 8.61216 3.9926 9.17157 3.48472C9.73098 2.97683 10.4437 2.63096 11.2196 2.49083C11.9956 2.35071 12.7998 2.42262 13.5307 2.69749C14.2616 2.97236 14.8864 3.43782 15.3259 4.03503C15.7654 4.63224 16 5.33437 16 6.05263C16 7.01579 15.5786 7.93949 14.8284 8.62055C14.0783 9.3016 13.0609 9.68421 12 9.68421V9.68421ZM24 23V21.7895C24 19.5421 23.0167 17.3868 21.2663 15.7977C19.516 14.2086 17.142 13.3158 14.6667 13.3158H9.33333C6.85798 13.3158 4.48401 14.2086 2.73367 15.7977C0.98333 17.3868 0 19.5421 0 21.7895V23H2.66667V21.7895C2.66667 20.1842 3.36905 18.6447 4.61929 17.5096C5.86953 16.3745 7.56522 15.7368 9.33333 15.7368H14.6667C16.4348 15.7368 18.1305 16.3745 19.3807 17.5096C20.631 18.6447 21.3333 20.1842 21.3333 21.7895V23H24Z" fill="white"/>
</svg>
